# Blender v2.79 (sub 0) OBJ File: 'ring.blend'
# www.blender.org
mtllib ring03_spike_01.mtl
o Torus
v 8.852667 1.000026 0.643625
v 7.288607 1.112609 0.643625
v 7.288607 0.887443 0.643625
v 3.904072 1.000026 -5.452049
v 3.809073 1.112609 -5.281754
v 3.809073 0.887443 -5.281754
v 3.352031 1.000026 -5.728728
v 3.272454 1.112609 -5.550704
v 3.272454 0.887443 -5.550704
v 2.777694 1.000026 -5.955536
v 2.714163 1.112609 -5.771175
v 2.714163 0.887443 -5.771175
v 2.185563 1.000026 -6.130696
v 2.138574 1.112609 -5.941442
v 2.138574 0.887443 -5.941442
v 1.580265 1.000026 -6.252839
v 1.550186 1.112609 -6.060172
v 1.550186 0.887443 -6.060172
v 0.966540 1.000026 -6.321006
v 0.953607 1.112609 -6.126435
v 0.953607 0.887443 -6.126435
v 0.349196 1.000026 -6.334667
v 0.353510 1.112609 -6.139714
v 0.353510 0.887443 -6.139714
v -0.266943 1.000026 -7.713529
v -0.245416 1.112609 -6.099904
v -0.245416 0.887443 -6.099904
v -0.877051 1.000026 -6.198463
v -0.838480 1.112609 -6.007316
v -0.838480 0.887443 -6.007316
v -1.476351 1.000026 -6.049667
v -1.421037 1.112609 -5.862677
v -1.421037 0.887443 -5.862677
v -2.060158 1.000026 -5.848486
v -1.988534 1.112609 -5.667116
v -1.988534 0.887443 -5.667116
v -2.623897 1.000026 -5.596497
v -2.536524 1.112609 -5.422166
v -2.536524 0.887443 -5.422166
v -3.163165 1.000026 -5.295666
v -3.060726 1.112609 -5.129740
v -3.060726 0.887443 -5.129740
v -3.673729 1.000026 -4.948356
v -3.557027 1.112609 -4.792133
v -3.557027 0.887443 -4.792133
v -4.151601 1.000026 -4.557282
v -4.021548 1.112609 -4.411984
v -4.021548 0.887443 -4.411984
v -4.593042 1.000026 -4.125501
v -4.450657 1.112609 -3.992266
v -4.450657 0.887443 -3.992266
v -6.719236 1.000026 -4.321238
v -4.840991 1.112609 -3.536266
v -4.840991 0.887443 -3.536266
v -5.353114 1.000026 -3.153639
v -5.189495 1.112609 -3.047555
v -5.189495 0.887443 -3.047555
v -6.414986 1.000026 1.567454
v -6.221701 1.112609 1.541645
v -6.221701 0.887443 1.541645
v -6.306264 1.000026 2.175303
v -6.116017 1.112609 2.132512
v -6.116017 0.887443 2.132512
v -6.144247 1.000026 2.771167
v -5.958525 1.112609 2.711730
v -5.958525 0.887443 2.711730
v -5.930199 1.000026 3.350381
v -5.750458 1.112609 3.274762
v -5.750458 0.887443 3.274762
v -5.665800 1.000026 3.908407
v -5.493445 1.112609 3.817199
v -5.493445 0.887443 3.817199
v -5.353116 1.000026 4.440886
v -5.189497 1.112609 4.334802
v -5.189497 0.887443 4.334802
v -4.994594 1.000026 4.943645
v -4.840991 1.112609 4.823515
v -4.840991 0.887443 4.823515
v -5.708498 1.000026 6.761287
v -4.450659 1.112609 5.279513
v -4.450659 0.887443 5.279513
v -4.151604 1.000026 5.844529
v -4.021551 1.112609 5.699232
v -4.021551 0.887443 5.699232
v -3.673729 1.000026 6.235606
v -3.557027 1.112609 6.079383
v -3.557027 0.887443 6.079383
v -3.163165 1.000026 6.582915
v -3.060726 1.112609 6.416990
v -3.060726 0.887443 6.416990
v -2.623897 1.000026 6.883746
v -2.536524 1.112609 6.709416
v -2.536524 0.887443 6.709416
v -2.060158 1.000026 7.135736
v -1.988534 1.112609 6.954365
v -1.988534 0.887443 6.954365
v -1.476354 1.000026 7.336916
v -1.421040 1.112609 7.149926
v -1.421040 0.887443 7.149926
v 3.309937 1.000026 8.328076
v 2.714160 1.112609 7.058426
v 2.714160 0.887443 7.058426
v 3.352031 1.000026 7.015977
v 3.272454 1.112609 6.837953
v 3.272454 0.887443 6.837953
v 3.904072 1.000026 6.739298
v 3.809073 1.112609 6.569004
v 3.809073 0.887443 6.569004
v 4.429500 1.000026 6.414913
v 4.319822 1.112609 6.253680
v 4.319822 0.887443 6.253680
v 4.924207 1.000026 6.045355
v 4.800709 1.112609 5.894447
v 4.800709 0.887443 5.894447
v 5.384313 1.000026 5.633525
v 5.247961 1.112609 5.494123
v 5.247961 0.887443 5.494123
v 5.806220 1.000026 5.182643
v 5.658081 1.112609 5.055837
v 5.658081 0.887443 5.055837
v 6.186632 1.000026 4.696232
v 6.027865 1.112609 4.583014
v 6.027865 0.887443 4.583014
v 6.522562 1.000026 4.178109
v 6.354410 1.112609 4.079366
v 6.354410 0.887443 4.079366
v 6.811386 1.000026 3.632324
v 6.635166 1.112609 3.548829
v 6.635166 0.887443 3.548829
v 7.050845 1.000026 3.063143
v 6.867935 1.112609 2.995548
v 6.867935 0.887443 2.995548
v 7.239062 1.000026 2.475031
v 7.050893 1.112609 2.423867
v 7.050893 0.887443 2.423867
v 7.374564 1.000026 1.872586
v 7.182610 1.112609 1.838253
v 7.182610 0.887443 1.838253
v 7.456293 1.000026 1.260517
v 7.262056 1.112609 1.243283
v 7.262056 0.887443 1.243283
vn 0.2242 0.8658 -0.4473
vn -0.4481 0.0000 0.8940
vn 0.2242 -0.8658 -0.4473
vn 0.1838 0.8658 -0.4654
vn -0.3673 0.0000 0.9301
vn 0.1838 -0.8658 -0.4654
vn 0.1419 0.8658 -0.4798
vn -0.2837 0.0000 0.9589
vn 0.1419 -0.8658 -0.4798
vn 0.0990 0.8658 -0.4905
vn -0.1978 0.0000 0.9802
vn 0.0990 -0.8658 -0.4905
vn 0.0552 0.8658 -0.4973
vn -0.1104 0.0000 0.9939
vn 0.0552 -0.8658 -0.4973
vn 0.0111 0.8658 -0.5002
vn -0.0221 0.0000 0.9998
vn 0.0111 -0.8658 -0.5002
vn 0.1370 0.9827 -0.1243
vn 0.0663 0.0000 0.9978
vn 0.1370 -0.9827 -0.1243
vn -0.1565 0.9807 -0.1171
vn 0.1542 0.0000 0.9880
vn -0.1565 -0.9807 -0.1171
vn -0.1206 0.8658 -0.4856
vn 0.2410 0.0000 0.9705
vn -0.1206 -0.8658 -0.4856
vn -0.1630 0.8658 -0.4731
vn 0.3258 0.0000 0.9454
vn -0.1630 -0.8658 -0.4731
vn -0.2042 0.8658 -0.4568
vn 0.4081 0.0000 0.9129
vn -0.2042 -0.8658 -0.4568
vn -0.2438 0.8658 -0.4370
vn 0.4872 0.0000 0.8733
vn -0.2438 -0.8658 -0.4370
vn -0.2814 0.8658 -0.4137
vn 0.5624 0.0000 0.8268
vn -0.2814 -0.8658 -0.4137
vn -0.3169 0.8658 -0.3872
vn 0.6333 0.0000 0.7739
vn -0.3169 -0.8658 -0.3872
vn -0.3499 0.8658 -0.3577
vn 0.6992 0.0000 0.7149
vn -0.3499 -0.8658 -0.3577
vn -0.0203 0.9804 -0.1958
vn 0.7597 0.0000 0.6503
vn -0.0203 -0.9804 -0.1959
vn -0.1484 0.9847 0.0912
vn 0.8142 0.0000 0.5806
vn -0.1484 -0.9847 0.0912
vn -0.4926 0.8658 0.0881
vn 0.9844 0.0000 -0.1761
vn -0.4926 -0.8658 0.0881
vn -0.4828 0.8658 0.1313
vn 0.9650 0.0000 -0.2624
vn -0.4828 -0.8658 0.1313
vn -0.4693 0.8658 0.1734
vn 0.9380 0.0000 -0.3466
vn -0.4693 -0.8658 0.1734
vn -0.4522 0.8658 0.2142
vn 0.9037 0.0000 -0.4282
vn -0.4522 -0.8658 0.2142
vn -0.4315 0.8658 0.2534
vn 0.8623 0.0000 -0.5064
vn -0.4315 -0.8658 0.2534
vn -0.4074 0.8658 0.2905
vn 0.8142 0.0000 -0.5806
vn -0.4074 -0.8658 0.2905
vn -0.1868 0.9820 -0.0266
vn 0.7597 0.0000 -0.6503
vn -0.1868 -0.9820 -0.0266
vn 0.0433 0.9839 0.1731
vn 0.6992 0.0000 -0.7149
vn 0.0433 -0.9839 0.1731
vn -0.3169 0.8658 0.3872
vn 0.6333 0.0000 -0.7739
vn -0.3169 -0.8658 0.3872
vn -0.2814 0.8658 0.4137
vn 0.5624 0.0000 -0.8268
vn -0.2814 -0.8658 0.4137
vn -0.2438 0.8658 0.4370
vn 0.4872 0.0000 -0.8733
vn -0.2438 -0.8658 0.4370
vn -0.2042 0.8658 0.4568
vn 0.4081 0.0000 -0.9129
vn -0.2042 -0.8658 0.4568
vn -0.1630 0.8658 0.4731
vn 0.3258 0.0000 -0.9454
vn -0.1630 -0.8658 0.4731
vn -0.9053 0.0000 0.4248
vn 0.9589 0.0000 0.2837
vn 0.8733 0.0000 0.4872
vn -0.5440 0.0000 0.8391
vn -0.1324 0.0000 -0.9912
vn 0.1779 0.9816 0.0697
vn -0.3673 0.0000 -0.9301
vn 0.1779 -0.9816 0.0697
vn 0.2242 0.8658 0.4473
vn -0.4481 0.0000 -0.8940
vn 0.2242 -0.8658 0.4473
vn 0.2629 0.8658 0.4258
vn -0.5253 0.0000 -0.8509
vn 0.2629 -0.8658 0.4258
vn 0.2995 0.8658 0.4009
vn -0.5985 0.0000 -0.8011
vn 0.2995 -0.8658 0.4009
vn 0.3337 0.8658 0.3728
vn -0.6669 0.0000 -0.7451
vn 0.3337 -0.8658 0.3728
vn 0.3654 0.8658 0.3419
vn -0.7302 0.0000 -0.6833
vn 0.3654 -0.8658 0.3419
vn 0.3941 0.8658 0.3083
vn -0.7877 0.0000 -0.6160
vn 0.3941 -0.8658 0.3083
vn 0.4198 0.8658 0.2722
vn -0.8391 0.0000 -0.5440
vn 0.4198 -0.8658 0.2722
vn 0.4423 0.8658 0.2340
vn -0.8839 0.0000 -0.4677
vn 0.4423 -0.8658 0.2340
vn 0.4612 0.8658 0.1940
vn -0.9217 0.0000 -0.3878
vn 0.4612 -0.8658 0.1940
vn 0.4766 0.8658 0.1525
vn -0.9524 0.0000 -0.3048
vn 0.4766 -0.8658 0.1525
vn 0.4882 0.8658 0.1098
vn -0.9756 0.0000 -0.2194
vn 0.4882 -0.8658 0.1098
vn 0.4960 0.8658 0.0662
vn -0.9912 0.0000 -0.1324
vn 0.4960 -0.8658 0.0662
vn 0.1243 0.9815 0.1454
vn -0.9990 0.0000 -0.0442
vn 0.1243 -0.9815 0.1454
usemtl None
s off
f 4//1 7//1 8//1 5//1
f 5//2 8//2 9//2 6//2
f 6//3 9//3 7//3 4//3
f 7//4 10//4 11//4 8//4
f 8//5 11//5 12//5 9//5
f 9//6 12//6 10//6 7//6
f 10//7 13//7 14//7 11//7
f 11//8 14//8 15//8 12//8
f 12//9 15//9 13//9 10//9
f 13//10 16//10 17//10 14//10
f 14//11 17//11 18//11 15//11
f 15//12 18//12 16//12 13//12
f 16//13 19//13 20//13 17//13
f 17//14 20//14 21//14 18//14
f 18//15 21//15 19//15 16//15
f 19//16 22//16 23//16 20//16
f 20//17 23//17 24//17 21//17
f 21//18 24//18 22//18 19//18
f 22//19 25//19 26//19 23//19
f 23//20 26//20 27//20 24//20
f 24//21 27//21 25//21 22//21
f 25//22 28//22 29//22 26//22
f 26//23 29//23 30//23 27//23
f 27//24 30//24 28//24 25//24
f 28//25 31//25 32//25 29//25
f 29//26 32//26 33//26 30//26
f 30//27 33//27 31//27 28//27
f 31//28 34//28 35//28 32//28
f 32//29 35//29 36//29 33//29
f 33//30 36//30 34//30 31//30
f 34//31 37//31 38//31 35//31
f 35//32 38//32 39//32 36//32
f 36//33 39//33 37//33 34//33
f 37//34 40//34 41//34 38//34
f 38//35 41//35 42//35 39//35
f 39//36 42//36 40//36 37//36
f 40//37 43//37 44//37 41//37
f 41//38 44//38 45//38 42//38
f 42//39 45//39 43//39 40//39
f 43//40 46//40 47//40 44//40
f 44//41 47//41 48//41 45//41
f 45//42 48//42 46//42 43//42
f 46//43 49//43 50//43 47//43
f 47//44 50//44 51//44 48//44
f 48//45 51//45 49//45 46//45
f 49//46 52//46 53//46 50//46
f 50//47 53//47 54//47 51//47
f 51//48 54//48 52//48 49//48
f 52//49 55//49 56//49 53//49
f 53//50 56//50 57//50 54//50
f 54//51 57//51 55//51 52//51
f 58//52 61//52 62//52 59//52
f 59//53 62//53 63//53 60//53
f 60//54 63//54 61//54 58//54
f 61//55 64//55 65//55 62//55
f 62//56 65//56 66//56 63//56
f 63//57 66//57 64//57 61//57
f 64//58 67//58 68//58 65//58
f 65//59 68//59 69//59 66//59
f 66//60 69//60 67//60 64//60
f 67//61 70//61 71//61 68//61
f 68//62 71//62 72//62 69//62
f 69//63 72//63 70//63 67//63
f 70//64 73//64 74//64 71//64
f 71//65 74//65 75//65 72//65
f 72//66 75//66 73//66 70//66
f 73//67 76//67 77//67 74//67
f 74//68 77//68 78//68 75//68
f 75//69 78//69 76//69 73//69
f 76//70 79//70 80//70 77//70
f 77//71 80//71 81//71 78//71
f 78//72 81//72 79//72 76//72
f 79//73 82//73 83//73 80//73
f 80//74 83//74 84//74 81//74
f 81//75 84//75 82//75 79//75
f 82//76 85//76 86//76 83//76
f 83//77 86//77 87//77 84//77
f 84//78 87//78 85//78 82//78
f 85//79 88//79 89//79 86//79
f 86//80 89//80 90//80 87//80
f 87//81 90//81 88//81 85//81
f 88//82 91//82 92//82 89//82
f 89//83 92//83 93//83 90//83
f 90//84 93//84 91//84 88//84
f 91//85 94//85 95//85 92//85
f 92//86 95//86 96//86 93//86
f 93//87 96//87 94//87 91//87
f 94//88 97//88 98//88 95//88
f 95//89 98//89 99//89 96//89
f 96//90 99//90 97//90 94//90
f 101//91 102//91 100//91
f 98//92 97//92 99//92
f 5//93 6//93 4//93
f 56//94 55//94 57//94
f 60//95 58//95 59//95
f 100//96 103//96 104//96 101//96
f 101//97 104//97 105//97 102//97
f 102//98 105//98 103//98 100//98
f 103//99 106//99 107//99 104//99
f 104//100 107//100 108//100 105//100
f 105//101 108//101 106//101 103//101
f 106//102 109//102 110//102 107//102
f 107//103 110//103 111//103 108//103
f 108//104 111//104 109//104 106//104
f 109//105 112//105 113//105 110//105
f 110//106 113//106 114//106 111//106
f 111//107 114//107 112//107 109//107
f 112//108 115//108 116//108 113//108
f 113//109 116//109 117//109 114//109
f 114//110 117//110 115//110 112//110
f 115//111 118//111 119//111 116//111
f 116//112 119//112 120//112 117//112
f 117//113 120//113 118//113 115//113
f 118//114 121//114 122//114 119//114
f 119//115 122//115 123//115 120//115
f 120//116 123//116 121//116 118//116
f 121//117 124//117 125//117 122//117
f 122//118 125//118 126//118 123//118
f 123//119 126//119 124//119 121//119
f 124//120 127//120 128//120 125//120
f 125//121 128//121 129//121 126//121
f 126//122 129//122 127//122 124//122
f 127//123 130//123 131//123 128//123
f 128//124 131//124 132//124 129//124
f 129//125 132//125 130//125 127//125
f 130//126 133//126 134//126 131//126
f 131//127 134//127 135//127 132//127
f 132//128 135//128 133//128 130//128
f 133//129 136//129 137//129 134//129
f 134//130 137//130 138//130 135//130
f 135//131 138//131 136//131 133//131
f 136//132 139//132 140//132 137//132
f 137//133 140//133 141//133 138//133
f 138//134 141//134 139//134 136//134
f 139//135 1//135 2//135 140//135
f 140//136 2//136 3//136 141//136
f 141//137 3//137 1//137 139//137
