# Blender v2.79 (sub 0) OBJ File: ''
# www.blender.org
mtllib ring03_01_l.mtl
o Torus
v 7.483607 1.000026 0.643625
v 7.288607 1.112609 0.643625
v 7.288607 0.887443 0.643625
v 7.456293 1.000026 0.026732
v 7.262056 1.112609 0.043966
v 7.262056 0.887443 0.043966
v 7.374565 1.000026 -0.585334
v 7.182611 1.112609 -0.551001
v 7.182611 0.887443 -0.551001
v 2.185563 1.000026 -6.130696
v 2.138574 1.112609 -5.941442
v 2.138574 0.887443 -5.941442
v 1.580265 1.000026 -6.252839
v 1.550186 1.112609 -6.060172
v 1.550186 0.887443 -6.060172
v 0.966540 1.000026 -6.321006
v 0.953607 1.112609 -6.126435
v 0.953607 0.887443 -6.126435
v 0.349196 1.000026 -6.334667
v 0.353510 1.112609 -6.139714
v 0.353510 0.887443 -6.139714
v -0.266943 1.000026 -6.293712
v -0.245416 1.112609 -6.099904
v -0.245416 0.887443 -6.099904
v -0.877051 1.000026 -6.198463
v -0.838480 1.112609 -6.007316
v -0.838480 0.887443 -6.007316
v -1.476351 1.000026 -6.049667
v -1.421037 1.112609 -5.862677
v -1.421037 0.887443 -5.862677
v -2.060158 1.000026 -5.848486
v -1.988534 1.112609 -5.667116
v -1.988534 0.887443 -5.667116
v -2.623897 1.000026 -5.596497
v -2.536524 1.112609 -5.422166
v -2.536524 0.887443 -5.422166
v -3.163165 1.000026 -5.295666
v -3.060726 1.112609 -5.129740
v -3.060726 0.887443 -5.129740
v -3.673729 1.000026 -4.948356
v -3.557027 1.112609 -4.792133
v -3.557027 0.887443 -4.792133
v -6.306264 1.000026 2.175303
v -6.116017 1.112609 2.132512
v -6.116017 0.887443 2.132512
v -6.144247 1.000026 2.771167
v -5.958525 1.112609 2.711730
v -5.958525 0.887443 2.711730
v -5.930199 1.000026 3.350381
v -5.750458 1.112609 3.274762
v -5.750458 0.887443 3.274762
v -5.665800 1.000026 3.908407
v -5.493445 1.112609 3.817199
v -5.493445 0.887443 3.817199
v -5.353116 1.000026 4.440886
v -5.189497 1.112609 4.334802
v -5.189497 0.887443 4.334802
v -4.994594 1.000026 4.943645
v -4.840991 1.112609 4.823515
v -4.840991 0.887443 4.823515
v -4.593044 1.000026 5.412748
v -4.450659 1.112609 5.279513
v -4.450659 0.887443 5.279513
v -4.151604 1.000026 5.844529
v -4.021551 1.112609 5.699232
v -4.021551 0.887443 5.699232
v -3.673729 1.000026 6.235606
v -3.557027 1.112609 6.079383
v -3.557027 0.887443 6.079383
v -3.163165 1.000026 6.582915
v -3.060726 1.112609 6.416990
v -3.060726 0.887443 6.416990
v -2.623897 1.000026 6.883746
v -2.536524 1.112609 6.709416
v -2.536524 0.887443 6.709416
v -2.060158 1.000026 7.135736
v -1.988534 1.112609 6.954365
v -1.988534 0.887443 6.954365
v -1.476354 1.000026 7.336916
v -1.421040 1.112609 7.149926
v -1.421040 0.887443 7.149926
v 3.809073 0.887443 6.569004
v 6.186632 1.000026 4.696232
v 6.027865 1.112609 4.583014
v 6.027865 0.887443 4.583014
v 6.522562 1.000026 4.178109
v 6.354410 1.112609 4.079366
v 6.354410 0.887443 4.079366
v 6.811386 1.000026 3.632324
v 6.635166 1.112609 3.548829
v 6.635166 0.887443 3.548829
v 7.050845 1.000026 3.063143
v 6.867935 1.112609 2.995548
v 6.867935 0.887443 2.995548
v 7.239062 1.000026 2.475031
v 7.050893 1.112609 2.423867
v 7.050893 0.887443 2.423867
v 7.374564 1.000026 1.872586
v 7.182610 1.112609 1.838253
v 7.182610 0.887443 1.838253
v 7.456293 1.000026 1.260517
v 7.262056 1.112609 1.243283
v 7.262056 0.887443 1.243283
vn 0.4999 0.8658 -0.0221
vn -0.9990 0.0000 0.0442
vn 0.4999 -0.8658 -0.0221
vn 0.4960 0.8658 -0.0662
vn -0.9912 0.0000 0.1324
vn 0.4960 -0.8658 -0.0662
vn -0.1761 0.0000 -0.9844
vn 0.9705 0.0000 0.2410
vn 0.0990 0.8658 -0.4905
vn -0.1978 0.0000 0.9802
vn 0.0990 -0.8658 -0.4905
vn 0.0552 0.8658 -0.4973
vn -0.1104 0.0000 0.9939
vn 0.0552 -0.8658 -0.4973
vn 0.0111 0.8658 -0.5002
vn -0.0221 0.0000 0.9998
vn 0.0111 -0.8658 -0.5002
vn -0.0332 0.8658 -0.4993
vn 0.0663 0.0000 0.9978
vn -0.0332 -0.8658 -0.4993
vn -0.0772 0.8658 -0.4944
vn 0.1542 0.0000 0.9880
vn -0.0772 -0.8658 -0.4944
vn -0.1206 0.8658 -0.4856
vn 0.2410 0.0000 0.9705
vn -0.1206 -0.8658 -0.4856
vn -0.1630 0.8658 -0.4731
vn 0.3258 0.0000 0.9454
vn -0.1630 -0.8658 -0.4731
vn -0.2042 0.8658 -0.4568
vn 0.4081 0.0000 0.9129
vn -0.2042 -0.8658 -0.4568
vn -0.2438 0.8658 -0.4370
vn 0.4872 0.0000 0.8733
vn -0.2438 -0.8658 -0.4370
vn -0.2814 0.8658 -0.4137
vn 0.5624 0.0000 0.8268
vn -0.2814 -0.8658 -0.4137
vn -0.8011 0.0000 0.5985
vn -0.2194 0.0000 -0.9756
vn -0.4828 0.8658 0.1313
vn 0.9650 0.0000 -0.2624
vn -0.4828 -0.8658 0.1313
vn -0.4693 0.8658 0.1734
vn 0.9380 0.0000 -0.3466
vn -0.4693 -0.8658 0.1734
vn -0.4522 0.8658 0.2142
vn 0.9037 0.0000 -0.4282
vn -0.4522 -0.8658 0.2142
vn -0.4315 0.8658 0.2534
vn 0.8623 0.0000 -0.5064
vn -0.4315 -0.8658 0.2534
vn -0.4074 0.8658 0.2905
vn 0.8142 0.0000 -0.5806
vn -0.4074 -0.8658 0.2905
vn -0.3801 0.8658 0.3254
vn 0.7597 0.0000 -0.6503
vn -0.3801 -0.8658 0.3254
vn -0.3499 0.8658 0.3577
vn 0.6992 0.0000 -0.7149
vn -0.3499 -0.8658 0.3577
vn -0.3169 0.8658 0.3872
vn 0.6333 0.0000 -0.7739
vn -0.3169 -0.8658 0.3872
vn -0.2814 0.8658 0.4137
vn 0.5624 0.0000 -0.8268
vn -0.2814 -0.8658 0.4137
vn -0.2438 0.8658 0.4370
vn 0.4872 0.0000 -0.8733
vn -0.2438 -0.8658 0.4370
vn -0.2042 0.8658 0.4568
vn 0.4081 0.0000 -0.9129
vn -0.2042 -0.8658 0.4568
vn -0.1630 0.8658 0.4731
vn 0.3258 0.0000 -0.9454
vn -0.1630 -0.8658 0.4731
vn -0.5806 0.0000 0.8142
vn 0.9589 0.0000 0.2837
vn 0.4198 0.8658 0.2722
vn -0.8391 0.0000 -0.5440
vn 0.4198 -0.8658 0.2722
vn 0.4423 0.8658 0.2340
vn -0.8839 0.0000 -0.4677
vn 0.4423 -0.8658 0.2340
vn 0.4612 0.8658 0.1940
vn -0.9217 0.0000 -0.3878
vn 0.4612 -0.8658 0.1940
vn 0.4766 0.8658 0.1525
vn -0.9524 0.0000 -0.3048
vn 0.4766 -0.8658 0.1525
vn 0.4882 0.8658 0.1098
vn -0.9756 0.0000 -0.2194
vn 0.4882 -0.8658 0.1098
vn 0.4960 0.8658 0.0662
vn -0.9912 0.0000 -0.1324
vn 0.4960 -0.8658 0.0662
vn 0.4999 0.8658 0.0221
vn -0.9990 0.0000 -0.0442
vn 0.4999 -0.8658 0.0221
usemtl None
s off
f 1//1 4//1 5//1 2//1
f 2//2 5//2 6//2 3//2
f 3//3 6//3 4//3 1//3
f 4//4 7//4 8//4 5//4
f 5//5 8//5 9//5 6//5
f 6//6 9//6 7//6 4//6
f 8//7 7//7 9//7
f 11//8 12//8 10//8
f 10//9 13//9 14//9 11//9
f 11//10 14//10 15//10 12//10
f 12//11 15//11 13//11 10//11
f 13//12 16//12 17//12 14//12
f 14//13 17//13 18//13 15//13
f 15//14 18//14 16//14 13//14
f 16//15 19//15 20//15 17//15
f 17//16 20//16 21//16 18//16
f 18//17 21//17 19//17 16//17
f 19//18 22//18 23//18 20//18
f 20//19 23//19 24//19 21//19
f 21//20 24//20 22//20 19//20
f 22//21 25//21 26//21 23//21
f 23//22 26//22 27//22 24//22
f 24//23 27//23 25//23 22//23
f 25//24 28//24 29//24 26//24
f 26//25 29//25 30//25 27//25
f 27//26 30//26 28//26 25//26
f 28//27 31//27 32//27 29//27
f 29//28 32//28 33//28 30//28
f 30//29 33//29 31//29 28//29
f 31//30 34//30 35//30 32//30
f 32//31 35//31 36//31 33//31
f 33//32 36//32 34//32 31//32
f 34//33 37//33 38//33 35//33
f 35//34 38//34 39//34 36//34
f 36//35 39//35 37//35 34//35
f 37//36 40//36 41//36 38//36
f 38//37 41//37 42//37 39//37
f 39//38 42//38 40//38 37//38
f 41//39 40//39 42//39
f 44//40 45//40 43//40
f 43//41 46//41 47//41 44//41
f 44//42 47//42 48//42 45//42
f 45//43 48//43 46//43 43//43
f 46//44 49//44 50//44 47//44
f 47//45 50//45 51//45 48//45
f 48//46 51//46 49//46 46//46
f 49//47 52//47 53//47 50//47
f 50//48 53//48 54//48 51//48
f 51//49 54//49 52//49 49//49
f 52//50 55//50 56//50 53//50
f 53//51 56//51 57//51 54//51
f 54//52 57//52 55//52 52//52
f 55//53 58//53 59//53 56//53
f 56//54 59//54 60//54 57//54
f 57//55 60//55 58//55 55//55
f 58//56 61//56 62//56 59//56
f 59//57 62//57 63//57 60//57
f 60//58 63//58 61//58 58//58
f 61//59 64//59 65//59 62//59
f 62//60 65//60 66//60 63//60
f 63//61 66//61 64//61 61//61
f 64//62 67//62 68//62 65//62
f 65//63 68//63 69//63 66//63
f 66//64 69//64 67//64 64//64
f 67//65 70//65 71//65 68//65
f 68//66 71//66 72//66 69//66
f 69//67 72//67 70//67 67//67
f 70//68 73//68 74//68 71//68
f 71//69 74//69 75//69 72//69
f 72//70 75//70 73//70 70//70
f 73//71 76//71 77//71 74//71
f 74//72 77//72 78//72 75//72
f 75//73 78//73 76//73 73//73
f 76//74 79//74 80//74 77//74
f 77//75 80//75 81//75 78//75
f 78//76 81//76 79//76 76//76
f 84//77 85//77 83//77
f 80//78 79//78 81//78
f 83//79 86//79 87//79 84//79
f 84//80 87//80 88//80 85//80
f 85//81 88//81 86//81 83//81
f 86//82 89//82 90//82 87//82
f 87//83 90//83 91//83 88//83
f 88//84 91//84 89//84 86//84
f 89//85 92//85 93//85 90//85
f 90//86 93//86 94//86 91//86
f 91//87 94//87 92//87 89//87
f 92//88 95//88 96//88 93//88
f 93//89 96//89 97//89 94//89
f 94//90 97//90 95//90 92//90
f 95//91 98//91 99//91 96//91
f 96//92 99//92 100//92 97//92
f 97//93 100//93 98//93 95//93
f 98//94 101//94 102//94 99//94
f 99//95 102//95 103//95 100//95
f 100//96 103//96 101//96 98//96
f 101//97 1//97 2//97 102//97
f 102//98 2//98 3//98 103//98
f 103//99 3//99 1//99 101//99
