# Blender v2.79 (sub 0) OBJ File: 'ring.blend'
# www.blender.org
mtllib ring03_01_s.mtl.mtl
o Torus
v 7.483607 1.000026 0.643625
v 7.288607 1.112609 0.643625
v 7.288607 0.887443 0.643625
v 7.050845 1.000026 -1.775893
v 6.867935 1.112609 -1.708299
v 6.867935 0.887443 -1.708299
v 6.811387 1.000026 -2.345072
v 6.635167 1.112609 -2.261577
v 6.635167 0.887443 -2.261577
v 6.522563 1.000026 -2.890859
v 6.354411 1.112609 -2.792116
v 6.354411 0.887443 -2.792116
v 6.186632 1.000026 -3.408983
v 6.027865 1.112609 -3.295765
v 6.027865 0.887443 -3.295765
v 5.806222 1.000026 -3.895392
v 5.658083 1.112609 -3.768585
v 5.658083 0.887443 -3.768585
v 5.384314 1.000026 -4.346275
v 5.247962 1.112609 -4.206872
v 5.247962 0.887443 -4.206872
v 4.924207 1.000026 -4.758106
v 4.800709 1.112609 -4.607197
v 4.800709 0.887443 -4.607197
v 4.429502 1.000026 -5.127661
v 4.319824 1.112609 -4.966429
v 4.319824 0.887443 -4.966429
v 3.904072 1.000026 -5.452049
v 3.809073 1.112609 -5.281754
v 3.809073 0.887443 -5.281754
v 3.352031 1.000026 -5.728728
v 3.272454 1.112609 -5.550704
v 3.272454 0.887443 -5.550704
v 2.777694 1.000026 -5.955536
v 2.714163 1.112609 -5.771175
v 2.714163 0.887443 -5.771175
v 2.185563 1.000026 -6.130696
v 2.138574 1.112609 -5.941442
v 2.138574 0.887443 -5.941442
v 1.580265 1.000026 -6.252839
v 1.550186 1.112609 -6.060172
v 1.550186 0.887443 -6.060172
v 0.966540 1.000026 -6.321006
v 0.953607 1.112609 -6.126435
v 0.953607 0.887443 -6.126435
v 0.349196 1.000026 -6.334667
v 0.353510 1.112609 -6.139714
v 0.353510 0.887443 -6.139714
v -0.266943 1.000026 -6.293712
v -0.245416 1.112609 -6.099904
v -0.245416 0.887443 -6.099904
v -0.877051 1.000026 -6.198463
v -0.838480 1.112609 -6.007316
v -0.838480 0.887443 -6.007316
v -1.476351 1.000026 -6.049667
v -1.421037 1.112609 -5.862677
v -1.421037 0.887443 -5.862677
v -2.060158 1.000026 -5.848486
v -1.988534 1.112609 -5.667116
v -1.988534 0.887443 -5.667116
v -2.623897 1.000026 -5.596497
v -2.536524 1.112609 -5.422166
v -2.536524 0.887443 -5.422166
v -3.163165 1.000026 -5.295666
v -3.060726 1.112609 -5.129740
v -3.060726 0.887443 -5.129740
v -3.673729 1.000026 -4.948356
v -3.557027 1.112609 -4.792133
v -3.557027 0.887443 -4.792133
v -4.151601 1.000026 -4.557282
v -4.021548 1.112609 -4.411984
v -4.021548 0.887443 -4.411984
v -4.593042 1.000026 -4.125501
v -4.450657 1.112609 -3.992266
v -4.450657 0.887443 -3.992266
v -4.994594 1.000026 -3.656396
v -4.840991 1.112609 -3.536266
v -4.840991 0.887443 -3.536266
v -5.353114 1.000026 -3.153639
v -5.189495 1.112609 -3.047555
v -5.189495 0.887443 -3.047555
v -5.665799 1.000026 -2.621161
v -5.493444 1.112609 -2.529953
v -5.493444 0.887443 -2.529953
v -5.930199 1.000026 -2.063132
v -5.750458 1.112609 -1.987513
v -5.750458 0.887443 -1.987513
v -6.144245 1.000026 -1.483921
v -5.958524 1.112609 -1.424484
v -5.958524 0.887443 -1.424484
v -6.306264 1.000026 -0.888057
v -6.116016 1.112609 -0.845266
v -6.116016 0.887443 -0.845266
v -6.414986 1.000026 -0.280205
v -6.221701 1.112609 -0.254396
v -6.221701 0.887443 -0.254396
v -6.469561 1.000026 0.334874
v -6.274751 1.112609 0.343500
v -6.274751 0.887443 0.343500
v -6.469561 1.000026 0.952372
v -6.274751 1.112609 0.943746
v -6.274751 0.887443 0.943746
v -5.930199 1.000026 3.350381
v -5.750458 1.112609 3.274762
v -5.750458 0.887443 3.274762
v -5.665800 1.000026 3.908407
v -5.493445 1.112609 3.817199
v -5.493445 0.887443 3.817199
v -5.353116 1.000026 4.440886
v -5.189497 1.112609 4.334802
v -5.189497 0.887443 4.334802
v -4.994594 1.000026 4.943645
v -4.840991 1.112609 4.823515
v -4.840991 0.887443 4.823515
v -4.593044 1.000026 5.412748
v -4.450659 1.112609 5.279513
v -4.450659 0.887443 5.279513
v -4.151604 1.000026 5.844529
v -4.021551 1.112609 5.699232
v -4.021551 0.887443 5.699232
v -3.673729 1.000026 6.235606
v -3.557027 1.112609 6.079383
v -3.557027 0.887443 6.079383
v -3.163165 1.000026 6.582915
v -3.060726 1.112609 6.416990
v -3.060726 0.887443 6.416990
v -2.623897 1.000026 6.883746
v -2.536524 1.112609 6.709416
v -2.536524 0.887443 6.709416
v -2.060158 1.000026 7.135736
v -1.988534 1.112609 6.954365
v -1.988534 0.887443 6.954365
v -1.476354 1.000026 7.336916
v -1.421040 1.112609 7.149926
v -1.421040 0.887443 7.149926
v -0.877054 1.000026 7.485713
v -0.838483 1.112609 7.294565
v -0.838483 0.887443 7.294565
v -0.266943 1.000026 7.580962
v -0.245416 1.112609 7.387154
v -0.245416 0.887443 7.387154
v 2.185560 1.000026 7.417946
v 2.138571 1.112609 7.228692
v 2.138571 0.887443 7.228692
v 2.777691 1.000026 7.242787
v 2.714160 1.112609 7.058426
v 2.714160 0.887443 7.058426
v 3.352031 1.000026 7.015977
v 3.272454 1.112609 6.837953
v 3.272454 0.887443 6.837953
v 3.904072 1.000026 6.739298
v 3.809073 1.112609 6.569004
v 3.809073 0.887443 6.569004
v 4.429500 1.000026 6.414913
v 4.319822 1.112609 6.253680
v 4.319822 0.887443 6.253680
v 4.924207 1.000026 6.045355
v 4.800709 1.112609 5.894447
v 4.800709 0.887443 5.894447
v 5.384313 1.000026 5.633525
v 5.247961 1.112609 5.494123
v 5.247961 0.887443 5.494123
v 5.806220 1.000026 5.182643
v 5.658081 1.112609 5.055837
v 5.658081 0.887443 5.055837
v 6.186632 1.000026 4.696232
v 6.027865 1.112609 4.583014
v 6.027865 0.887443 4.583014
v 6.522562 1.000026 4.178109
v 6.354410 1.112609 4.079366
v 6.354410 0.887443 4.079366
v 6.811386 1.000026 3.632324
v 6.635166 1.112609 3.548829
v 6.635166 0.887443 3.548829
v 7.050845 1.000026 3.063143
v 6.867935 1.112609 2.995548
v 6.867935 0.887443 2.995548
v 7.239062 1.000026 2.475031
v 7.050893 1.112609 2.423867
v 7.050893 0.887443 2.423867
v 7.374564 1.000026 1.872586
v 7.182610 1.112609 1.838253
v 7.182610 0.887443 1.838253
v 7.456293 1.000026 1.260517
v 7.262056 1.112609 1.243283
v 7.262056 0.887443 1.243283
vn -0.3878 0.0000 -0.9217
vn 0.0000 0.0000 -1.0000
vn 0.3466 0.0000 0.9380
vn 0.0442 0.0000 0.9990
vn 0.4612 0.8658 -0.1940
vn -0.9217 0.0000 0.3878
vn 0.4612 -0.8658 -0.1940
vn 0.4423 0.8658 -0.2340
vn -0.8839 0.0000 0.4677
vn 0.4423 -0.8658 -0.2340
vn 0.4198 0.8658 -0.2722
vn -0.8391 0.0000 0.5440
vn 0.4198 -0.8658 -0.2722
vn 0.3941 0.8658 -0.3082
vn -0.7877 0.0000 0.6160
vn 0.3941 -0.8658 -0.3082
vn 0.3654 0.8658 -0.3419
vn -0.7302 0.0000 0.6833
vn 0.3654 -0.8658 -0.3419
vn 0.3337 0.8658 -0.3728
vn -0.6669 0.0000 0.7451
vn 0.3337 -0.8658 -0.3728
vn 0.2995 0.8658 -0.4009
vn -0.5985 0.0000 0.8011
vn 0.2995 -0.8658 -0.4009
vn 0.2629 0.8658 -0.4258
vn -0.5253 0.0000 0.8509
vn 0.2629 -0.8658 -0.4258
vn 0.2242 0.8658 -0.4473
vn -0.4481 0.0000 0.8940
vn 0.2242 -0.8658 -0.4473
vn 0.1838 0.8658 -0.4654
vn -0.3673 0.0000 0.9301
vn 0.1838 -0.8658 -0.4654
vn 0.1419 0.8658 -0.4798
vn -0.2837 0.0000 0.9589
vn 0.1419 -0.8658 -0.4798
vn 0.0990 0.8658 -0.4905
vn -0.1978 0.0000 0.9802
vn 0.0990 -0.8658 -0.4905
vn 0.0552 0.8658 -0.4973
vn -0.1104 0.0000 0.9939
vn 0.0552 -0.8658 -0.4973
vn 0.0111 0.8658 -0.5002
vn -0.0221 0.0000 0.9998
vn 0.0111 -0.8658 -0.5002
vn -0.0332 0.8658 -0.4993
vn 0.0663 0.0000 0.9978
vn -0.0332 -0.8658 -0.4993
vn -0.0772 0.8658 -0.4944
vn 0.1542 0.0000 0.9880
vn -0.0772 -0.8658 -0.4944
vn -0.1206 0.8658 -0.4856
vn 0.2410 0.0000 0.9705
vn -0.1206 -0.8658 -0.4856
vn -0.1630 0.8658 -0.4731
vn 0.3258 0.0000 0.9454
vn -0.1630 -0.8658 -0.4731
vn -0.2042 0.8658 -0.4568
vn 0.4081 0.0000 0.9129
vn -0.2042 -0.8658 -0.4568
vn -0.2438 0.8658 -0.4370
vn 0.4872 0.0000 0.8733
vn -0.2438 -0.8658 -0.4370
vn -0.2814 0.8658 -0.4137
vn 0.5624 0.0000 0.8268
vn -0.2814 -0.8658 -0.4137
vn -0.3169 0.8658 -0.3872
vn 0.6333 0.0000 0.7739
vn -0.3169 -0.8658 -0.3872
vn -0.3499 0.8658 -0.3577
vn 0.6992 0.0000 0.7149
vn -0.3499 -0.8658 -0.3577
vn -0.3801 0.8658 -0.3254
vn 0.7597 0.0000 0.6503
vn -0.3801 -0.8658 -0.3254
vn -0.4074 0.8658 -0.2905
vn 0.8142 0.0000 0.5806
vn -0.4074 -0.8658 -0.2905
vn -0.4315 0.8658 -0.2534
vn 0.8623 0.0000 0.5064
vn -0.4315 -0.8658 -0.2534
vn -0.4522 0.8658 -0.2142
vn 0.9037 0.0000 0.4282
vn -0.4522 -0.8658 -0.2142
vn -0.4693 0.8658 -0.1734
vn 0.9380 0.0000 0.3466
vn -0.4693 -0.8658 -0.1734
vn -0.4828 0.8658 -0.1313
vn 0.9650 0.0000 0.2624
vn -0.4828 -0.8658 -0.1313
vn -0.4925 0.8658 -0.0881
vn 0.9844 0.0000 0.1761
vn -0.4925 -0.8658 -0.0881
vn -0.4984 0.8658 -0.0442
vn 0.9961 0.0000 0.0884
vn -0.4984 -0.8658 -0.0442
vn -0.5004 0.8658 0.0000
vn 1.0000 0.0000 0.0000
vn -0.5004 -0.8658 0.0000
vn -0.4522 0.8658 0.2142
vn 0.9037 0.0000 -0.4282
vn -0.4522 -0.8658 0.2142
vn -0.4315 0.8658 0.2534
vn 0.8623 0.0000 -0.5064
vn -0.4315 -0.8658 0.2534
vn -0.4074 0.8658 0.2905
vn 0.8142 0.0000 -0.5806
vn -0.4074 -0.8658 0.2905
vn -0.3801 0.8658 0.3254
vn 0.7597 0.0000 -0.6503
vn -0.3801 -0.8658 0.3254
vn -0.3499 0.8658 0.3577
vn 0.6992 0.0000 -0.7149
vn -0.3499 -0.8658 0.3577
vn -0.3169 0.8658 0.3872
vn 0.6333 0.0000 -0.7739
vn -0.3169 -0.8658 0.3872
vn -0.2814 0.8658 0.4137
vn 0.5624 0.0000 -0.8268
vn -0.2814 -0.8658 0.4137
vn -0.2438 0.8658 0.4370
vn 0.4872 0.0000 -0.8733
vn -0.2438 -0.8658 0.4370
vn -0.2042 0.8658 0.4568
vn 0.4081 0.0000 -0.9129
vn -0.2042 -0.8658 0.4568
vn -0.1630 0.8658 0.4731
vn 0.3258 0.0000 -0.9454
vn -0.1630 -0.8658 0.4731
vn -0.1206 0.8658 0.4856
vn 0.2410 0.0000 -0.9705
vn -0.1206 -0.8658 0.4856
vn -0.0772 0.8658 0.4944
vn 0.1542 0.0000 -0.9880
vn -0.0772 -0.8658 0.4944
vn -0.9705 0.0000 0.2410
vn 0.9939 0.0000 0.1104
vn 0.1419 0.8658 0.4798
vn -0.2837 0.0000 -0.9589
vn 0.1419 -0.8658 0.4798
vn 0.1838 0.8658 0.4654
vn -0.3673 0.0000 -0.9301
vn 0.1838 -0.8658 0.4654
vn 0.2242 0.8658 0.4473
vn -0.4481 0.0000 -0.8940
vn 0.2242 -0.8658 0.4473
vn 0.2629 0.8658 0.4258
vn -0.5253 0.0000 -0.8509
vn 0.2629 -0.8658 0.4258
vn 0.2995 0.8658 0.4009
vn -0.5985 0.0000 -0.8011
vn 0.2995 -0.8658 0.4009
vn 0.3337 0.8658 0.3728
vn -0.6669 0.0000 -0.7451
vn 0.3337 -0.8658 0.3728
vn 0.3654 0.8658 0.3419
vn -0.7302 0.0000 -0.6833
vn 0.3654 -0.8658 0.3419
vn 0.3941 0.8658 0.3083
vn -0.7877 0.0000 -0.6160
vn 0.3941 -0.8658 0.3083
vn 0.4198 0.8658 0.2722
vn -0.8391 0.0000 -0.5440
vn 0.4198 -0.8658 0.2722
vn 0.4423 0.8658 0.2340
vn -0.8839 0.0000 -0.4677
vn 0.4423 -0.8658 0.2340
vn 0.4612 0.8658 0.1940
vn -0.9217 0.0000 -0.3878
vn 0.4612 -0.8658 0.1940
vn 0.4766 0.8658 0.1525
vn -0.9524 0.0000 -0.3048
vn 0.4766 -0.8658 0.1525
vn 0.4882 0.8658 0.1098
vn -0.9756 0.0000 -0.2194
vn 0.4882 -0.8658 0.1098
vn 0.4960 0.8658 0.0662
vn -0.9912 0.0000 -0.1324
vn 0.4960 -0.8658 0.0662
vn 0.4999 0.8658 0.0221
vn -0.9990 0.0000 -0.0442
vn 0.4999 -0.8658 0.0221
usemtl None
s off
f 104//1 105//1 103//1
f 2//2 1//2 3//2
f 5//3 6//3 4//3
f 102//4 101//4 100//4
f 4//5 7//5 8//5 5//5
f 5//6 8//6 9//6 6//6
f 6//7 9//7 7//7 4//7
f 7//8 10//8 11//8 8//8
f 8//9 11//9 12//9 9//9
f 9//10 12//10 10//10 7//10
f 10//11 13//11 14//11 11//11
f 11//12 14//12 15//12 12//12
f 12//13 15//13 13//13 10//13
f 13//14 16//14 17//14 14//14
f 14//15 17//15 18//15 15//15
f 15//16 18//16 16//16 13//16
f 16//17 19//17 20//17 17//17
f 17//18 20//18 21//18 18//18
f 18//19 21//19 19//19 16//19
f 19//20 22//20 23//20 20//20
f 20//21 23//21 24//21 21//21
f 21//22 24//22 22//22 19//22
f 22//23 25//23 26//23 23//23
f 23//24 26//24 27//24 24//24
f 24//25 27//25 25//25 22//25
f 25//26 28//26 29//26 26//26
f 26//27 29//27 30//27 27//27
f 27//28 30//28 28//28 25//28
f 28//29 31//29 32//29 29//29
f 29//30 32//30 33//30 30//30
f 30//31 33//31 31//31 28//31
f 31//32 34//32 35//32 32//32
f 32//33 35//33 36//33 33//33
f 33//34 36//34 34//34 31//34
f 34//35 37//35 38//35 35//35
f 35//36 38//36 39//36 36//36
f 36//37 39//37 37//37 34//37
f 37//38 40//38 41//38 38//38
f 38//39 41//39 42//39 39//39
f 39//40 42//40 40//40 37//40
f 40//41 43//41 44//41 41//41
f 41//42 44//42 45//42 42//42
f 42//43 45//43 43//43 40//43
f 43//44 46//44 47//44 44//44
f 44//45 47//45 48//45 45//45
f 45//46 48//46 46//46 43//46
f 46//47 49//47 50//47 47//47
f 47//48 50//48 51//48 48//48
f 48//49 51//49 49//49 46//49
f 49//50 52//50 53//50 50//50
f 50//51 53//51 54//51 51//51
f 51//52 54//52 52//52 49//52
f 52//53 55//53 56//53 53//53
f 53//54 56//54 57//54 54//54
f 54//55 57//55 55//55 52//55
f 55//56 58//56 59//56 56//56
f 56//57 59//57 60//57 57//57
f 57//58 60//58 58//58 55//58
f 58//59 61//59 62//59 59//59
f 59//60 62//60 63//60 60//60
f 60//61 63//61 61//61 58//61
f 61//62 64//62 65//62 62//62
f 62//63 65//63 66//63 63//63
f 63//64 66//64 64//64 61//64
f 64//65 67//65 68//65 65//65
f 65//66 68//66 69//66 66//66
f 66//67 69//67 67//67 64//67
f 67//68 70//68 71//68 68//68
f 68//69 71//69 72//69 69//69
f 69//70 72//70 70//70 67//70
f 70//71 73//71 74//71 71//71
f 71//72 74//72 75//72 72//72
f 72//73 75//73 73//73 70//73
f 73//74 76//74 77//74 74//74
f 74//75 77//75 78//75 75//75
f 75//76 78//76 76//76 73//76
f 76//77 79//77 80//77 77//77
f 77//78 80//78 81//78 78//78
f 78//79 81//79 79//79 76//79
f 79//80 82//80 83//80 80//80
f 80//81 83//81 84//81 81//81
f 81//82 84//82 82//82 79//82
f 82//83 85//83 86//83 83//83
f 83//84 86//84 87//84 84//84
f 84//85 87//85 85//85 82//85
f 85//86 88//86 89//86 86//86
f 86//87 89//87 90//87 87//87
f 87//88 90//88 88//88 85//88
f 88//89 91//89 92//89 89//89
f 89//90 92//90 93//90 90//90
f 90//91 93//91 91//91 88//91
f 91//92 94//92 95//92 92//92
f 92//93 95//93 96//93 93//93
f 93//94 96//94 94//94 91//94
f 94//95 97//95 98//95 95//95
f 95//96 98//96 99//96 96//96
f 96//97 99//97 97//97 94//97
f 97//98 100//98 101//98 98//98
f 98//99 101//99 102//99 99//99
f 99//100 102//100 100//100 97//100
f 103//101 106//101 107//101 104//101
f 104//102 107//102 108//102 105//102
f 105//103 108//103 106//103 103//103
f 106//104 109//104 110//104 107//104
f 107//105 110//105 111//105 108//105
f 108//106 111//106 109//106 106//106
f 109//107 112//107 113//107 110//107
f 110//108 113//108 114//108 111//108
f 111//109 114//109 112//109 109//109
f 112//110 115//110 116//110 113//110
f 113//111 116//111 117//111 114//111
f 114//112 117//112 115//112 112//112
f 115//113 118//113 119//113 116//113
f 116//114 119//114 120//114 117//114
f 117//115 120//115 118//115 115//115
f 118//116 121//116 122//116 119//116
f 119//117 122//117 123//117 120//117
f 120//118 123//118 121//118 118//118
f 121//119 124//119 125//119 122//119
f 122//120 125//120 126//120 123//120
f 123//121 126//121 124//121 121//121
f 124//122 127//122 128//122 125//122
f 125//123 128//123 129//123 126//123
f 126//124 129//124 127//124 124//124
f 127//125 130//125 131//125 128//125
f 128//126 131//126 132//126 129//126
f 129//127 132//127 130//127 127//127
f 130//128 133//128 134//128 131//128
f 131//129 134//129 135//129 132//129
f 132//130 135//130 133//130 130//130
f 133//131 136//131 137//131 134//131
f 134//132 137//132 138//132 135//132
f 135//133 138//133 136//133 133//133
f 136//134 139//134 140//134 137//134
f 137//135 140//135 141//135 138//135
f 138//136 141//136 139//136 136//136
f 144//137 142//137 143//137
f 140//138 139//138 141//138
f 142//139 145//139 146//139 143//139
f 143//140 146//140 147//140 144//140
f 144//141 147//141 145//141 142//141
f 145//142 148//142 149//142 146//142
f 146//143 149//143 150//143 147//143
f 147//144 150//144 148//144 145//144
f 148//145 151//145 152//145 149//145
f 149//146 152//146 153//146 150//146
f 150//147 153//147 151//147 148//147
f 151//148 154//148 155//148 152//148
f 152//149 155//149 156//149 153//149
f 153//150 156//150 154//150 151//150
f 154//151 157//151 158//151 155//151
f 155//152 158//152 159//152 156//152
f 156//153 159//153 157//153 154//153
f 157//154 160//154 161//154 158//154
f 158//155 161//155 162//155 159//155
f 159//156 162//156 160//156 157//156
f 160//157 163//157 164//157 161//157
f 161//158 164//158 165//158 162//158
f 162//159 165//159 163//159 160//159
f 163//160 166//160 167//160 164//160
f 164//161 167//161 168//161 165//161
f 165//162 168//162 166//162 163//162
f 166//163 169//163 170//163 167//163
f 167//164 170//164 171//164 168//164
f 168//165 171//165 169//165 166//165
f 169//166 172//166 173//166 170//166
f 170//167 173//167 174//167 171//167
f 171//168 174//168 172//168 169//168
f 172//169 175//169 176//169 173//169
f 173//170 176//170 177//170 174//170
f 174//171 177//171 175//171 172//171
f 175//172 178//172 179//172 176//172
f 176//173 179//173 180//173 177//173
f 177//174 180//174 178//174 175//174
f 178//175 181//175 182//175 179//175
f 179//176 182//176 183//176 180//176
f 180//177 183//177 181//177 178//177
f 181//178 184//178 185//178 182//178
f 182//179 185//179 186//179 183//179
f 183//180 186//180 184//180 181//180
f 184//181 1//181 2//181 185//181
f 185//182 2//182 3//182 186//182
f 186//183 3//183 1//183 184//183
