# Blender v2.79 (sub 0) OBJ File: ''
# www.blender.org
mtllib ring01_01_m.mtl
o Torus
v 7.483607 1.000026 0.643625
v 7.288607 1.112609 0.643625
v 7.288607 0.887443 0.643625
v 7.456293 1.000026 0.026732
v 7.262056 1.112609 0.043966
v 7.262056 0.887443 0.043966
v 7.374565 1.000026 -0.585334
v 7.182611 1.112609 -0.551001
v 7.182611 0.887443 -0.551001
v 7.239062 1.000026 -1.187780
v 7.050894 1.112609 -1.136616
v 7.050894 0.887443 -1.136616
v 7.050845 1.000026 -1.775893
v 6.867935 1.112609 -1.708299
v 6.867935 0.887443 -1.708299
v 6.811387 1.000026 -2.345072
v 6.635167 1.112609 -2.261577
v 6.635167 0.887443 -2.261577
v 6.522563 1.000026 -2.890859
v 6.354411 1.112609 -2.792116
v 6.354411 0.887443 -2.792116
v 6.186632 1.000026 -3.408983
v 6.027865 1.112609 -3.295765
v 6.027865 0.887443 -3.295765
v 5.806222 1.000026 -3.895392
v 5.658083 1.112609 -3.768585
v 5.658083 0.887443 -3.768585
v 5.384314 1.000026 -4.346275
v 5.247962 1.112609 -4.206872
v 5.247962 0.887443 -4.206872
v 4.924207 1.000026 -4.758106
v 4.800709 1.112609 -4.607197
v 4.800709 0.887443 -4.607197
v 4.429502 1.000026 -5.127661
v 4.319824 1.112609 -4.966429
v 4.319824 0.887443 -4.966429
v 3.904072 1.000026 -5.452049
v 3.809073 1.112609 -5.281754
v 3.809073 0.887443 -5.281754
v 3.352031 1.000026 -5.728728
v 3.272454 1.112609 -5.550704
v 3.272454 0.887443 -5.550704
v 2.777694 1.000026 -5.955536
v 2.714163 1.112609 -5.771175
v 2.714163 0.887443 -5.771175
v 2.185563 1.000026 -6.130696
v 2.138574 1.112609 -5.941442
v 2.138574 0.887443 -5.941442
v 1.580265 1.000026 -6.252839
v 1.550186 1.112609 -6.060172
v 1.550186 0.887443 -6.060172
v 0.966540 1.000026 -6.321006
v 0.953607 1.112609 -6.126435
v 0.953607 0.887443 -6.126435
v 0.349196 1.000026 -6.334667
v 0.353510 1.112609 -6.139714
v 0.353510 0.887443 -6.139714
v -0.266943 1.000026 -6.293712
v -0.245416 1.112609 -6.099904
v -0.245416 0.887443 -6.099904
v -0.877051 1.000026 -6.198463
v -0.838480 1.112609 -6.007316
v -0.838480 0.887443 -6.007316
v -1.476351 1.000026 -6.049667
v -1.421037 1.112609 -5.862677
v -1.421037 0.887443 -5.862677
v -2.060158 1.000026 -5.848486
v -1.988534 1.112609 -5.667116
v -1.988534 0.887443 -5.667116
v -2.623897 1.000026 -5.596497
v -2.536524 1.112609 -5.422166
v -2.536524 0.887443 -5.422166
v -3.163165 1.000026 -5.295666
v -3.060726 1.112609 -5.129740
v -3.060726 0.887443 -5.129740
v -3.673729 1.000026 -4.948356
v -3.557027 1.112609 -4.792133
v -3.557027 0.887443 -4.792133
v -4.151601 1.000026 -4.557282
v -4.021548 1.112609 -4.411984
v -4.021548 0.887443 -4.411984
v -4.593042 1.000026 -4.125501
v -4.450657 1.112609 -3.992266
v -4.450657 0.887443 -3.992266
v -6.306264 1.000026 -0.888057
v -6.116016 1.112609 -0.845266
v -6.116016 0.887443 -0.845266
v -6.414986 1.000026 -0.280205
v -6.221701 1.112609 -0.254396
v -6.221701 0.887443 -0.254396
v -6.469561 1.000026 0.334874
v -6.274751 1.112609 0.343500
v -6.274751 0.887443 0.343500
v -6.469561 1.000026 0.952372
v -6.274751 1.112609 0.943746
v -6.274751 0.887443 0.943746
v -6.414986 1.000026 1.567454
v -6.221701 1.112609 1.541645
v -6.221701 0.887443 1.541645
v -6.306264 1.000026 2.175303
v -6.116017 1.112609 2.132512
v -6.116017 0.887443 2.132512
v -6.144247 1.000026 2.771167
v -5.958525 1.112609 2.711730
v -5.958525 0.887443 2.711730
v -5.930199 1.000026 3.350381
v -5.750458 1.112609 3.274762
v -5.750458 0.887443 3.274762
v -5.665800 1.000026 3.908407
v -5.493445 1.112609 3.817199
v -5.493445 0.887443 3.817199
v -5.353116 1.000026 4.440886
v -5.189497 1.112609 4.334802
v -5.189497 0.887443 4.334802
v -4.994594 1.000026 4.943645
v -4.840991 1.112609 4.823515
v -4.840991 0.887443 4.823515
v -4.593044 1.000026 5.412748
v -4.450659 1.112609 5.279513
v -4.450659 0.887443 5.279513
v -4.151604 1.000026 5.844529
v -4.021551 1.112609 5.699232
v -4.021551 0.887443 5.699232
v -3.673729 1.000026 6.235606
v -3.557027 1.112609 6.079383
v -3.557027 0.887443 6.079383
v -3.163165 1.000026 6.582915
v -3.060726 1.112609 6.416990
v -3.060726 0.887443 6.416990
v -2.623897 1.000026 6.883746
v -2.536524 1.112609 6.709416
v -2.536524 0.887443 6.709416
v -2.060158 1.000026 7.135736
v -1.988534 1.112609 6.954365
v -1.988534 0.887443 6.954365
v -1.476354 1.000026 7.336916
v -1.421040 1.112609 7.149926
v -1.421040 0.887443 7.149926
v -0.877054 1.000026 7.485713
v -0.838483 1.112609 7.294565
v -0.838483 0.887443 7.294565
v -0.266943 1.000026 7.580962
v -0.245416 1.112609 7.387154
v -0.245416 0.887443 7.387154
v 0.349193 1.000026 7.621916
v 0.353507 1.112609 7.426964
v 0.353507 0.887443 7.426964
v 0.966537 1.000026 7.608256
v 0.953604 1.112609 7.413685
v 0.953604 0.887443 7.413685
v 1.580265 1.000026 7.540088
v 1.550186 1.112609 7.347422
v 1.550186 0.887443 7.347422
v 2.185560 1.000026 7.417946
v 2.138571 1.112609 7.228692
v 2.138571 0.887443 7.228692
v 2.777691 1.000026 7.242787
v 2.714160 1.112609 7.058426
v 2.714160 0.887443 7.058426
v 3.352031 1.000026 7.015977
v 3.272454 1.112609 6.837953
v 3.272454 0.887443 6.837953
v 3.904072 1.000026 6.739298
v 3.809073 1.112609 6.569004
v 3.809073 0.887443 6.569004
v 4.429500 1.000026 6.414913
v 4.319822 1.112609 6.253680
v 4.319822 0.887443 6.253680
v 4.924207 1.000026 6.045355
v 4.800709 1.112609 5.894447
v 4.800709 0.887443 5.894447
v 5.384313 1.000026 5.633525
v 5.247961 1.112609 5.494123
v 5.247961 0.887443 5.494123
v 5.806220 1.000026 5.182643
v 5.658081 1.112609 5.055837
v 5.658081 0.887443 5.055837
v 6.186632 1.000026 4.696232
v 6.027865 1.112609 4.583014
v 6.027865 0.887443 4.583014
v 6.522562 1.000026 4.178109
v 6.354410 1.112609 4.079366
v 6.354410 0.887443 4.079366
v 6.811386 1.000026 3.632324
v 6.635166 1.112609 3.548829
v 6.635166 0.887443 3.548829
v 7.050845 1.000026 3.063143
v 6.867935 1.112609 2.995548
v 6.867935 0.887443 2.995548
v 7.239062 1.000026 2.475031
v 7.050893 1.112609 2.423867
v 7.050893 0.887443 2.423867
v 7.374564 1.000026 1.872586
v 7.182610 1.112609 1.838253
v 7.182610 0.887443 1.838253
v 7.456293 1.000026 1.260517
v 7.262056 1.112609 1.243283
v 7.262056 0.887443 1.243283
vn 0.4999 0.8658 -0.0221
vn -0.9990 0.0000 0.0442
vn 0.4999 -0.8658 -0.0221
vn 0.4960 0.8658 -0.0662
vn -0.9912 0.0000 0.1324
vn 0.4960 -0.8658 -0.0662
vn 0.4882 0.8658 -0.1098
vn -0.9756 0.0000 0.2194
vn 0.4882 -0.8658 -0.1098
vn 0.4766 0.8658 -0.1525
vn -0.9524 0.0000 0.3048
vn 0.4766 -0.8658 -0.1525
vn 0.4612 0.8658 -0.1940
vn -0.9217 0.0000 0.3878
vn 0.4612 -0.8658 -0.1940
vn 0.4423 0.8658 -0.2340
vn -0.8839 0.0000 0.4677
vn 0.4423 -0.8658 -0.2340
vn 0.4198 0.8658 -0.2722
vn -0.8391 0.0000 0.5440
vn 0.4198 -0.8658 -0.2722
vn 0.3941 0.8658 -0.3082
vn -0.7877 0.0000 0.6160
vn 0.3941 -0.8658 -0.3082
vn 0.3654 0.8658 -0.3419
vn -0.7302 0.0000 0.6833
vn 0.3654 -0.8658 -0.3419
vn 0.3337 0.8658 -0.3728
vn -0.6669 0.0000 0.7451
vn 0.3337 -0.8658 -0.3728
vn 0.2995 0.8658 -0.4009
vn -0.5985 0.0000 0.8011
vn 0.2995 -0.8658 -0.4009
vn 0.2629 0.8658 -0.4258
vn -0.5253 0.0000 0.8509
vn 0.2629 -0.8658 -0.4258
vn 0.2242 0.8658 -0.4473
vn -0.4481 0.0000 0.8940
vn 0.2242 -0.8658 -0.4473
vn 0.1838 0.8658 -0.4654
vn -0.3673 0.0000 0.9301
vn 0.1838 -0.8658 -0.4654
vn 0.1419 0.8658 -0.4798
vn -0.2837 0.0000 0.9589
vn 0.1419 -0.8658 -0.4798
vn 0.0990 0.8658 -0.4905
vn -0.1978 0.0000 0.9802
vn 0.0990 -0.8658 -0.4905
vn 0.0552 0.8658 -0.4973
vn -0.1104 0.0000 0.9939
vn 0.0552 -0.8658 -0.4973
vn 0.0111 0.8658 -0.5002
vn -0.0221 0.0000 0.9998
vn 0.0111 -0.8658 -0.5002
vn -0.0332 0.8658 -0.4993
vn 0.0663 0.0000 0.9978
vn -0.0332 -0.8658 -0.4993
vn -0.0772 0.8658 -0.4944
vn 0.1542 0.0000 0.9880
vn -0.0772 -0.8658 -0.4944
vn -0.1206 0.8658 -0.4856
vn 0.2410 0.0000 0.9705
vn -0.1206 -0.8658 -0.4856
vn -0.1630 0.8658 -0.4731
vn 0.3258 0.0000 0.9454
vn -0.1630 -0.8658 -0.4731
vn -0.2042 0.8658 -0.4568
vn 0.4081 0.0000 0.9129
vn -0.2042 -0.8658 -0.4568
vn -0.2438 0.8658 -0.4370
vn 0.4872 0.0000 0.8733
vn -0.2438 -0.8658 -0.4370
vn -0.2814 0.8658 -0.4137
vn 0.5624 0.0000 0.8268
vn -0.2814 -0.8658 -0.4137
vn -0.3169 0.8658 -0.3872
vn 0.6333 0.0000 0.7739
vn -0.3169 -0.8658 -0.3872
vn -0.3499 0.8658 -0.3577
vn 0.6992 0.0000 0.7149
vn -0.3499 -0.8658 -0.3577
vn 0.2194 0.0000 -0.9756
vn -0.6833 0.0000 0.7302
vn -0.4925 0.8658 -0.0881
vn 0.9844 0.0000 0.1761
vn -0.4925 -0.8658 -0.0881
vn -0.4984 0.8658 -0.0442
vn 0.9961 0.0000 0.0884
vn -0.4984 -0.8658 -0.0442
vn -0.5004 0.8658 0.0000
vn 1.0000 0.0000 0.0000
vn -0.5004 -0.8658 0.0000
vn -0.4984 0.8658 0.0442
vn 0.9961 0.0000 -0.0884
vn -0.4984 -0.8658 0.0442
vn -0.4926 0.8658 0.0881
vn 0.9844 0.0000 -0.1761
vn -0.4926 -0.8658 0.0881
vn -0.4828 0.8658 0.1313
vn 0.9650 0.0000 -0.2624
vn -0.4828 -0.8658 0.1313
vn -0.4693 0.8658 0.1734
vn 0.9380 0.0000 -0.3466
vn -0.4693 -0.8658 0.1734
vn -0.4522 0.8658 0.2142
vn 0.9037 0.0000 -0.4282
vn -0.4522 -0.8658 0.2142
vn -0.4315 0.8658 0.2534
vn 0.8623 0.0000 -0.5064
vn -0.4315 -0.8658 0.2534
vn -0.4074 0.8658 0.2905
vn 0.8142 0.0000 -0.5806
vn -0.4074 -0.8658 0.2905
vn -0.3801 0.8658 0.3254
vn 0.7597 0.0000 -0.6503
vn -0.3801 -0.8658 0.3254
vn -0.3499 0.8658 0.3577
vn 0.6992 0.0000 -0.7149
vn -0.3499 -0.8658 0.3577
vn -0.3169 0.8658 0.3872
vn 0.6333 0.0000 -0.7739
vn -0.3169 -0.8658 0.3872
vn -0.2814 0.8658 0.4137
vn 0.5624 0.0000 -0.8268
vn -0.2814 -0.8658 0.4137
vn -0.2438 0.8658 0.4370
vn 0.4872 0.0000 -0.8733
vn -0.2438 -0.8658 0.4370
vn -0.2042 0.8658 0.4568
vn 0.4081 0.0000 -0.9129
vn -0.2042 -0.8658 0.4568
vn -0.1630 0.8658 0.4731
vn 0.3258 0.0000 -0.9454
vn -0.1630 -0.8658 0.4731
vn -0.1206 0.8658 0.4856
vn 0.2410 0.0000 -0.9705
vn -0.1206 -0.8658 0.4856
vn -0.0772 0.8658 0.4944
vn 0.1542 0.0000 -0.9880
vn -0.0772 -0.8658 0.4944
vn -0.0332 0.8658 0.4993
vn 0.0663 0.0000 -0.9978
vn -0.0332 -0.8658 0.4993
vn 0.0111 0.8658 0.5002
vn -0.0221 0.0000 -0.9998
vn 0.0111 -0.8658 0.5002
vn 0.0552 0.8658 0.4973
vn -0.1104 0.0000 -0.9939
vn 0.0552 -0.8658 0.4973
vn 0.0990 0.8658 0.4905
vn -0.1978 0.0000 -0.9802
vn 0.0990 -0.8658 0.4905
vn 0.1419 0.8658 0.4798
vn -0.2837 0.0000 -0.9589
vn 0.1419 -0.8658 0.4798
vn 0.1838 0.8658 0.4654
vn -0.3673 0.0000 -0.9301
vn 0.1838 -0.8658 0.4654
vn 0.2242 0.8658 0.4473
vn -0.4481 0.0000 -0.8940
vn 0.2242 -0.8658 0.4473
vn 0.2629 0.8658 0.4258
vn -0.5253 0.0000 -0.8509
vn 0.2629 -0.8658 0.4258
vn 0.2995 0.8658 0.4009
vn -0.5985 0.0000 -0.8011
vn 0.2995 -0.8658 0.4009
vn 0.3337 0.8658 0.3728
vn -0.6669 0.0000 -0.7451
vn 0.3337 -0.8658 0.3728
vn 0.3654 0.8658 0.3419
vn -0.7302 0.0000 -0.6833
vn 0.3654 -0.8658 0.3419
vn 0.3941 0.8658 0.3083
vn -0.7877 0.0000 -0.6160
vn 0.3941 -0.8658 0.3083
vn 0.4198 0.8658 0.2722
vn -0.8391 0.0000 -0.5440
vn 0.4198 -0.8658 0.2722
vn 0.4423 0.8658 0.2340
vn -0.8839 0.0000 -0.4677
vn 0.4423 -0.8658 0.2340
vn 0.4612 0.8658 0.1940
vn -0.9217 0.0000 -0.3878
vn 0.4612 -0.8658 0.1940
vn 0.4766 0.8658 0.1525
vn -0.9524 0.0000 -0.3048
vn 0.4766 -0.8658 0.1525
vn 0.4882 0.8658 0.1098
vn -0.9756 0.0000 -0.2194
vn 0.4882 -0.8658 0.1098
vn 0.4960 0.8658 0.0662
vn -0.9912 0.0000 -0.1324
vn 0.4960 -0.8658 0.0662
vn 0.4999 0.8658 0.0221
vn -0.9990 0.0000 -0.0442
vn 0.4999 -0.8658 0.0221
usemtl None
s off
f 1//1 4//1 5//1 2//1
f 2//2 5//2 6//2 3//2
f 3//3 6//3 4//3 1//3
f 4//4 7//4 8//4 5//4
f 5//5 8//5 9//5 6//5
f 6//6 9//6 7//6 4//6
f 7//7 10//7 11//7 8//7
f 8//8 11//8 12//8 9//8
f 9//9 12//9 10//9 7//9
f 10//10 13//10 14//10 11//10
f 11//11 14//11 15//11 12//11
f 12//12 15//12 13//12 10//12
f 13//13 16//13 17//13 14//13
f 14//14 17//14 18//14 15//14
f 15//15 18//15 16//15 13//15
f 16//16 19//16 20//16 17//16
f 17//17 20//17 21//17 18//17
f 18//18 21//18 19//18 16//18
f 19//19 22//19 23//19 20//19
f 20//20 23//20 24//20 21//20
f 21//21 24//21 22//21 19//21
f 22//22 25//22 26//22 23//22
f 23//23 26//23 27//23 24//23
f 24//24 27//24 25//24 22//24
f 25//25 28//25 29//25 26//25
f 26//26 29//26 30//26 27//26
f 27//27 30//27 28//27 25//27
f 28//28 31//28 32//28 29//28
f 29//29 32//29 33//29 30//29
f 30//30 33//30 31//30 28//30
f 31//31 34//31 35//31 32//31
f 32//32 35//32 36//32 33//32
f 33//33 36//33 34//33 31//33
f 34//34 37//34 38//34 35//34
f 35//35 38//35 39//35 36//35
f 36//36 39//36 37//36 34//36
f 37//37 40//37 41//37 38//37
f 38//38 41//38 42//38 39//38
f 39//39 42//39 40//39 37//39
f 40//40 43//40 44//40 41//40
f 41//41 44//41 45//41 42//41
f 42//42 45//42 43//42 40//42
f 43//43 46//43 47//43 44//43
f 44//44 47//44 48//44 45//44
f 45//45 48//45 46//45 43//45
f 46//46 49//46 50//46 47//46
f 47//47 50//47 51//47 48//47
f 48//48 51//48 49//48 46//48
f 49//49 52//49 53//49 50//49
f 50//50 53//50 54//50 51//50
f 51//51 54//51 52//51 49//51
f 52//52 55//52 56//52 53//52
f 53//53 56//53 57//53 54//53
f 54//54 57//54 55//54 52//54
f 55//55 58//55 59//55 56//55
f 56//56 59//56 60//56 57//56
f 57//57 60//57 58//57 55//57
f 58//58 61//58 62//58 59//58
f 59//59 62//59 63//59 60//59
f 60//60 63//60 61//60 58//60
f 61//61 64//61 65//61 62//61
f 62//62 65//62 66//62 63//62
f 63//63 66//63 64//63 61//63
f 64//64 67//64 68//64 65//64
f 65//65 68//65 69//65 66//65
f 66//66 69//66 67//66 64//66
f 67//67 70//67 71//67 68//67
f 68//68 71//68 72//68 69//68
f 69//69 72//69 70//69 67//69
f 70//70 73//70 74//70 71//70
f 71//71 74//71 75//71 72//71
f 72//72 75//72 73//72 70//72
f 73//73 76//73 77//73 74//73
f 74//74 77//74 78//74 75//74
f 75//75 78//75 76//75 73//75
f 76//76 79//76 80//76 77//76
f 77//77 80//77 81//77 78//77
f 78//78 81//78 79//78 76//78
f 79//79 82//79 83//79 80//79
f 80//80 83//80 84//80 81//80
f 81//81 84//81 82//81 79//81
f 87//82 85//82 86//82
f 83//83 82//83 84//83
f 85//84 88//84 89//84 86//84
f 86//85 89//85 90//85 87//85
f 87//86 90//86 88//86 85//86
f 88//87 91//87 92//87 89//87
f 89//88 92//88 93//88 90//88
f 90//89 93//89 91//89 88//89
f 91//90 94//90 95//90 92//90
f 92//91 95//91 96//91 93//91
f 93//92 96//92 94//92 91//92
f 94//93 97//93 98//93 95//93
f 95//94 98//94 99//94 96//94
f 96//95 99//95 97//95 94//95
f 97//96 100//96 101//96 98//96
f 98//97 101//97 102//97 99//97
f 99//98 102//98 100//98 97//98
f 100//99 103//99 104//99 101//99
f 101//100 104//100 105//100 102//100
f 102//101 105//101 103//101 100//101
f 103//102 106//102 107//102 104//102
f 104//103 107//103 108//103 105//103
f 105//104 108//104 106//104 103//104
f 106//105 109//105 110//105 107//105
f 107//106 110//106 111//106 108//106
f 108//107 111//107 109//107 106//107
f 109//108 112//108 113//108 110//108
f 110//109 113//109 114//109 111//109
f 111//110 114//110 112//110 109//110
f 112//111 115//111 116//111 113//111
f 113//112 116//112 117//112 114//112
f 114//113 117//113 115//113 112//113
f 115//114 118//114 119//114 116//114
f 116//115 119//115 120//115 117//115
f 117//116 120//116 118//116 115//116
f 118//117 121//117 122//117 119//117
f 119//118 122//118 123//118 120//118
f 120//119 123//119 121//119 118//119
f 121//120 124//120 125//120 122//120
f 122//121 125//121 126//121 123//121
f 123//122 126//122 124//122 121//122
f 124//123 127//123 128//123 125//123
f 125//124 128//124 129//124 126//124
f 126//125 129//125 127//125 124//125
f 127//126 130//126 131//126 128//126
f 128//127 131//127 132//127 129//127
f 129//128 132//128 130//128 127//128
f 130//129 133//129 134//129 131//129
f 131//130 134//130 135//130 132//130
f 132//131 135//131 133//131 130//131
f 133//132 136//132 137//132 134//132
f 134//133 137//133 138//133 135//133
f 135//134 138//134 136//134 133//134
f 136//135 139//135 140//135 137//135
f 137//136 140//136 141//136 138//136
f 138//137 141//137 139//137 136//137
f 139//138 142//138 143//138 140//138
f 140//139 143//139 144//139 141//139
f 141//140 144//140 142//140 139//140
f 142//141 145//141 146//141 143//141
f 143//142 146//142 147//142 144//142
f 144//143 147//143 145//143 142//143
f 145//144 148//144 149//144 146//144
f 146//145 149//145 150//145 147//145
f 147//146 150//146 148//146 145//146
f 148//147 151//147 152//147 149//147
f 149//148 152//148 153//148 150//148
f 150//149 153//149 151//149 148//149
f 151//150 154//150 155//150 152//150
f 152//151 155//151 156//151 153//151
f 153//152 156//152 154//152 151//152
f 154//153 157//153 158//153 155//153
f 155//154 158//154 159//154 156//154
f 156//155 159//155 157//155 154//155
f 157//156 160//156 161//156 158//156
f 158//157 161//157 162//157 159//157
f 159//158 162//158 160//158 157//158
f 160//159 163//159 164//159 161//159
f 161//160 164//160 165//160 162//160
f 162//161 165//161 163//161 160//161
f 163//162 166//162 167//162 164//162
f 164//163 167//163 168//163 165//163
f 165//164 168//164 166//164 163//164
f 166//165 169//165 170//165 167//165
f 167//166 170//166 171//166 168//166
f 168//167 171//167 169//167 166//167
f 169//168 172//168 173//168 170//168
f 170//169 173//169 174//169 171//169
f 171//170 174//170 172//170 169//170
f 172//171 175//171 176//171 173//171
f 173//172 176//172 177//172 174//172
f 174//173 177//173 175//173 172//173
f 175//174 178//174 179//174 176//174
f 176//175 179//175 180//175 177//175
f 177//176 180//176 178//176 175//176
f 178//177 181//177 182//177 179//177
f 179//178 182//178 183//178 180//178
f 180//179 183//179 181//179 178//179
f 181//180 184//180 185//180 182//180
f 182//181 185//181 186//181 183//181
f 183//182 186//182 184//182 181//182
f 184//183 187//183 188//183 185//183
f 185//184 188//184 189//184 186//184
f 186//185 189//185 187//185 184//185
f 187//186 190//186 191//186 188//186
f 188//187 191//187 192//187 189//187
f 189//188 192//188 190//188 187//188
f 190//189 193//189 194//189 191//189
f 191//190 194//190 195//190 192//190
f 192//191 195//191 193//191 190//191
f 193//192 196//192 197//192 194//192
f 194//193 197//193 198//193 195//193
f 195//194 198//194 196//194 193//194
f 196//195 1//195 2//195 197//195
f 197//196 2//196 3//196 198//196
f 198//197 3//197 1//197 196//197
